<svg width="187" height="34" viewBox="0 0 187 34" fill="none" xmlns="http://www.w3.org/2000/svg">
<g clip-path="url(#clip0_5_1227)">
<path fill-rule="evenodd" clip-rule="evenodd" d="M25.6327 27.8236C24.0007 29.4825 22.3989 31.1784 20.6539 32.7225C18.5885 34.548 15.2982 34.3925 13.3044 32.4337C9.39604 28.5938 5.49895 24.739 1.62448 20.8658C-0.587894 18.6552 -0.516284 15.2448 1.70362 13.0527C5.57433 9.23502 9.42619 5.39882 13.2931 1.58113C15.3736 -0.470275 18.7581 -0.54063 20.8762 1.45893C22.4931 2.98823 24.0422 4.58418 25.6214 6.15051C25.2445 6.70224 24.7281 7.12807 24.2608 7.59093C22.4856 9.36462 20.6916 11.1198 18.8938 12.8713C18.2455 13.5045 17.6953 14.1969 17.3824 15.0449C16.7229 16.8297 16.8962 18.5552 18.0156 20.0993C18.841 21.2398 19.9491 22.1507 20.9366 23.1579C22.4781 24.7353 24.0648 26.2683 25.6327 27.8199V27.8236Z" fill="#2C599B"/>
<path fill-rule="evenodd" clip-rule="evenodd" d="M25.6855 6.15421C26.6919 5.33587 27.5549 4.37311 28.4746 3.46961C29.2246 2.72903 29.9595 1.97364 30.7548 1.2812C31.9759 0.214761 33.4646 -0.118499 35.0325 0.129595C36.1708 0.307334 37.2072 0.78871 38.059 1.64408C40.8857 4.4805 43.7539 7.27248 46.5919 10.0941C47.8017 11.2975 49.1095 12.4195 50.1686 13.7563C51.6611 15.6373 51.6988 18.2331 50.2251 20.1623C49.2528 21.4398 48.0165 22.4914 46.8783 23.6208C44.47 26.0091 42.0578 28.3938 39.6306 30.7637C38.8015 31.5709 38.0628 32.4818 37.0715 33.1187C36.02 33.7963 34.8479 34.037 33.6003 33.9111C32.5149 33.8037 31.5576 33.3631 30.702 32.7336C30.2648 32.4115 29.9256 31.9671 29.5374 31.5783C28.3012 30.3378 27.065 29.0974 25.8288 27.8606C25.7986 27.831 25.7458 27.8273 25.7044 27.8125C25.7496 27.7569 25.7948 27.694 25.8438 27.6421C28.1467 25.35 30.457 23.0616 32.7599 20.7695C34.8177 18.7218 34.8102 15.2337 32.7448 13.1934C30.898 11.3679 29.0474 9.54976 27.2044 7.72424C26.6881 7.21324 26.1944 6.68002 25.6893 6.15421H25.6855Z" fill="#58C4E9"/>
<path fill-rule="evenodd" clip-rule="evenodd" d="M25.6854 6.15385C26.1904 6.67596 26.6841 7.21288 27.2005 7.72388C29.0435 9.55311 30.8978 11.3712 32.7408 13.1931C34.8062 15.2334 34.8138 18.7215 32.7559 20.7692C30.4531 23.0613 28.1465 25.3534 25.8399 27.6418C25.7871 27.6936 25.7457 27.7528 25.7004 27.8121C25.6778 27.8195 25.6514 27.8232 25.6288 27.8195C24.061 26.268 22.4742 24.735 20.9327 23.1576C19.9453 22.1504 18.8372 21.2357 18.0118 20.099C16.8924 18.5549 16.719 16.833 17.3786 15.0445C17.6914 14.1965 18.2417 13.5041 18.89 12.8709C20.6877 11.1194 22.4818 9.36426 24.2569 7.59057C24.7243 7.12401 25.2406 6.69818 25.6175 6.15015C25.6401 6.14274 25.659 6.14274 25.6816 6.15015L25.6854 6.15385Z" fill="#5266A8"/>
<path fill-rule="evenodd" clip-rule="evenodd" d="M95.5427 22.5988C95.5427 24.9242 95.5351 27.1311 95.5502 29.3381C95.5502 29.6713 95.4861 29.7898 95.1168 29.7787C94.167 29.7491 93.2172 29.7602 92.2674 29.775C92.0149 29.775 91.9019 29.7491 91.9019 29.4492C91.9132 22.9061 91.9094 16.3594 91.9019 9.81639C91.9019 9.5683 91.9282 9.4424 92.2373 9.44981C93.1569 9.47202 94.0765 9.46462 94.9962 9.44981C95.2525 9.44981 95.3391 9.52757 95.3316 9.77936C95.3165 10.3348 95.3278 10.8902 95.3278 11.5642C95.8442 10.9347 96.3341 10.4422 96.9221 10.0608C98.2789 9.1795 99.779 8.89067 101.385 9.02397C105.481 9.35723 107.713 12.5825 108.123 15.9447C108.402 18.2627 107.939 20.3956 106.458 22.2322C104.758 24.3392 102.489 25.2019 99.7714 24.9168C98.0716 24.7391 96.6583 24.0318 95.5427 22.6025V22.5988ZM99.9825 21.599C102.549 21.599 104.588 19.5957 104.566 17.0111C104.543 14.5043 102.783 12.3788 99.9561 12.3603C97.3744 12.3455 95.3542 14.4228 95.3655 17.0407C95.3768 19.592 97.4121 21.599 99.9862 21.5953L99.9825 21.599Z" fill="#302D2E"/>
<path fill-rule="evenodd" clip-rule="evenodd" d="M180.83 18.1963C178.946 18.1963 177.061 18.2074 175.181 18.1852C174.777 18.1815 174.732 18.3185 174.8 18.648C175.177 20.4106 176.782 21.7548 178.667 21.8659C180.329 21.9621 181.72 21.4882 182.639 20.0366C182.737 19.8848 182.843 19.8478 183.005 19.8515C184.06 19.8552 185.116 19.8589 186.171 19.8515C186.457 19.8515 186.514 19.9181 186.382 20.181C185.161 22.6657 183.269 24.3727 180.457 24.8615C176.775 25.4984 173.164 23.647 171.672 20.044C170.1 16.2523 171.634 11.9199 175.286 9.94623C179.767 7.52084 185.613 9.82404 186.823 15.1599C187.023 16.0375 187 16.9188 187 17.8075C187 18.1222 186.887 18.2074 186.574 18.2074C184.659 18.1963 182.745 18.2 180.834 18.2L180.83 18.1963ZM183.329 15.3895C183.31 15.0451 183.201 14.7452 183.061 14.4527C182.161 12.5716 179.933 11.6385 177.77 12.242C176.319 12.6456 175.35 13.5492 174.887 14.9637C174.789 15.2599 174.823 15.4265 175.237 15.4228C177.811 15.4006 180.385 15.4117 182.963 15.4117C183.08 15.4117 183.201 15.4006 183.329 15.3932V15.3895Z" fill="#2F2C2D"/>
<path fill-rule="evenodd" clip-rule="evenodd" d="M119.766 18.1923C117.882 18.1923 115.997 18.2034 114.113 18.1812C113.747 18.1812 113.672 18.2886 113.739 18.6108C114.128 20.4326 115.767 21.7804 117.67 21.8656C119.317 21.936 120.689 21.4657 121.594 20.0216C121.673 19.892 121.764 19.8438 121.918 19.8438C122.988 19.8512 124.059 19.8512 125.129 19.8438C125.367 19.8438 125.468 19.8734 125.336 20.14C124.059 22.758 122.073 24.4724 119.076 24.8872C114.848 25.4722 110.901 22.6876 110.14 18.3701C109.398 14.1636 112.115 9.83118 116.702 9.0906C121.458 8.3241 125.235 11.5641 125.86 15.5929C125.97 16.3038 125.928 17.0074 125.951 17.7184C125.962 18.0812 125.857 18.1997 125.468 18.196C123.569 18.1775 121.669 18.1886 119.77 18.1886L119.766 18.1923ZM118.04 15.404C119.212 15.404 120.388 15.404 121.56 15.404C122.14 15.404 122.314 15.1362 122.08 14.6005C122.057 14.545 122.035 14.4931 122.009 14.4376C121.085 12.5602 118.895 11.6308 116.758 12.2233C115.334 12.6158 114.342 13.4785 113.879 14.8782C113.706 15.4003 113.717 15.404 114.248 15.404C115.511 15.404 116.777 15.404 118.04 15.404Z" fill="#2F2C2D"/>
<path fill-rule="evenodd" clip-rule="evenodd" d="M63.5822 11.1013C64.9804 9.22391 66.8461 8.85362 68.9491 9.04617C71.9153 9.32019 73.2872 11.1976 73.7395 13.6933C73.894 14.5561 73.9317 15.4263 73.9317 16.3001C73.9242 18.907 73.9204 21.5138 73.9355 24.1207C73.9355 24.4465 73.8639 24.5465 73.5209 24.5354C72.6314 24.5095 71.7419 24.5021 70.8525 24.5354C70.4153 24.5539 70.2758 24.465 70.2796 23.9985C70.3097 21.4509 70.2984 18.9033 70.2909 16.3557C70.2909 15.7373 70.2155 15.1226 70.0421 14.5191C69.5786 12.912 68.2443 12.364 66.8197 12.3936C64.7995 12.4343 63.6312 13.8488 63.6123 15.7595C63.5859 18.5145 63.5859 21.2694 63.5935 24.0244C63.5935 24.428 63.4993 24.5539 63.0734 24.5354C62.1537 24.4984 61.2341 24.5132 60.3145 24.5317C60.0167 24.5354 59.8999 24.4836 59.8999 24.1503C59.9112 17.6332 59.9074 11.1161 59.8999 4.59899C59.8999 4.32868 59.964 4.24352 60.2467 4.24722C61.2266 4.26573 62.2065 4.26573 63.1864 4.24722C63.5068 4.23981 63.5897 4.33609 63.5897 4.64343C63.5784 6.59856 63.5822 8.55369 63.5822 10.5088C63.5822 10.6717 63.5822 10.831 63.5822 11.1013Z" fill="#2F2D2E"/>
<path fill-rule="evenodd" clip-rule="evenodd" d="M142.048 11.1419C143.431 9.23857 145.308 8.83865 147.43 9.04972C148.467 9.1534 149.424 9.43112 150.257 10.068C151.346 10.9012 151.874 12.0602 152.156 13.3377C152.371 14.3078 152.435 15.2965 152.431 16.2889C152.428 18.8809 152.424 21.4729 152.439 24.0613C152.439 24.4093 152.379 24.55 151.983 24.5352C151.048 24.5019 150.114 24.5093 149.179 24.5352C148.832 24.5463 148.749 24.439 148.753 24.1131C148.764 21.5359 148.757 18.9587 148.761 16.3852C148.761 15.6409 148.712 14.904 148.429 14.2116C147.818 12.723 146.556 12.3675 145.338 12.4045C143.035 12.4749 142.071 13.9968 142.056 16.2778C142.04 18.8846 142.048 21.4915 142.056 24.0946C142.056 24.4167 141.999 24.5537 141.622 24.5426C140.672 24.5093 139.723 24.5241 138.773 24.5352C138.52 24.5352 138.407 24.513 138.407 24.2131C138.419 17.6701 138.415 11.1233 138.407 4.58032C138.407 4.33593 138.468 4.25447 138.731 4.25817C139.726 4.27298 140.721 4.27668 141.716 4.25817C142.014 4.25076 142.056 4.35815 142.056 4.61735C142.044 6.76133 142.052 8.90531 142.052 11.153L142.048 11.1419Z" fill="#302D2E"/>
<path fill-rule="evenodd" clip-rule="evenodd" d="M82.5849 19.374C82.9731 18.3038 83.335 17.3152 83.6968 16.3228C84.4883 14.1566 85.2797 11.9867 86.0637 9.81681C86.1617 9.5428 86.2936 9.43541 86.6102 9.44282C87.6353 9.46874 88.6605 9.46503 89.6856 9.44282C90.0663 9.43541 90.0965 9.52058 89.9645 9.85754C87.6806 15.6415 85.4079 21.4291 83.1352 27.2167C82.8412 27.9684 82.5359 28.7164 82.2495 29.4718C82.1666 29.6903 82.0535 29.7828 81.7972 29.7791C80.7269 29.7606 79.6565 29.7643 78.5861 29.7754C78.2959 29.7754 78.2205 29.7421 78.3524 29.4385C79.11 27.6981 79.8449 25.9503 80.5987 24.2063C80.6854 24.0063 80.6892 23.8397 80.6062 23.6323C78.7821 19.0444 76.973 14.4528 75.1413 9.86865C74.9905 9.49466 75.0659 9.44282 75.439 9.45022C76.434 9.47244 77.429 9.47614 78.424 9.45022C78.7858 9.43911 78.9441 9.5465 79.0647 9.87976C80.1766 12.9198 81.3035 15.9488 82.4304 18.9852C82.4681 19.0889 82.5133 19.1925 82.5887 19.3814L82.5849 19.374Z" fill="#2F2D2E"/>
<path fill-rule="evenodd" clip-rule="evenodd" d="M132.056 11.179C132.784 10.0719 133.756 9.39425 135.041 9.11653C136.251 8.85733 136.247 8.83882 136.247 10.0163C136.247 10.7865 136.236 11.5567 136.255 12.3269C136.259 12.575 136.191 12.6528 135.931 12.6491C135.343 12.6417 134.762 12.7232 134.212 12.9342C132.848 13.4637 132.305 14.5635 132.282 15.9002C132.237 18.6071 132.26 21.3176 132.275 24.0281C132.275 24.4206 132.192 24.5576 131.766 24.5428C130.835 24.5058 129.897 24.5169 128.966 24.5428C128.657 24.5502 128.589 24.4502 128.589 24.1651C128.596 19.3995 128.596 14.6339 128.589 9.86452C128.589 9.57199 128.645 9.44239 128.985 9.44979C129.889 9.47201 130.794 9.46831 131.694 9.44979C132.004 9.44239 132.083 9.55348 132.068 9.8349C132.045 10.2829 132.06 10.731 132.06 11.1828L132.056 11.179Z" fill="#2F2C2D"/>
<path fill-rule="evenodd" clip-rule="evenodd" d="M166.542 11.1568C167.27 10.0682 168.238 9.38683 169.524 9.11652C170.711 8.86472 170.707 8.84621 170.707 10.0385C170.707 10.7791 170.692 11.5197 170.715 12.2603C170.726 12.5639 170.651 12.6491 170.326 12.6565C169.493 12.6676 168.683 12.8046 167.99 13.3045C167.059 13.9747 166.75 14.9523 166.738 16.015C166.708 18.6959 166.716 21.3731 166.731 24.054C166.731 24.4317 166.659 24.5613 166.245 24.5428C165.299 24.5058 164.345 24.5206 163.399 24.5354C163.113 24.5391 163.041 24.4465 163.041 24.1836C163.049 19.3884 163.049 14.5894 163.041 9.79415C163.041 9.50903 163.143 9.44978 163.41 9.45348C164.33 9.4683 165.25 9.4683 166.169 9.45348C166.463 9.44978 166.569 9.53124 166.55 9.83118C166.524 10.2718 166.542 10.7199 166.542 11.1605V11.1568Z" fill="#2F2C2D"/>
<path fill-rule="evenodd" clip-rule="evenodd" d="M159.577 17.0111C159.577 19.381 159.57 21.7508 159.585 24.117C159.585 24.4502 159.498 24.5428 159.159 24.5354C158.209 24.5132 157.259 24.5169 156.309 24.5354C156.008 24.5391 155.891 24.4798 155.891 24.1503C155.902 19.381 155.902 14.6153 155.891 9.846C155.891 9.53866 155.978 9.43868 156.298 9.44609C157.233 9.4646 158.168 9.47201 159.102 9.44609C159.472 9.43498 159.588 9.52385 159.585 9.90524C159.566 12.2751 159.577 14.645 159.577 17.0111Z" fill="#2F2D2D"/>
<path fill-rule="evenodd" clip-rule="evenodd" d="M155.929 6.57677C155.944 6.2324 156.038 5.9732 156.245 5.76213C156.675 5.32889 157.116 4.90676 157.534 4.46242C157.704 4.28468 157.802 4.3106 157.96 4.47352C158.363 4.89195 158.793 5.28076 159.196 5.69918C159.709 6.2287 159.716 6.8656 159.215 7.39881C158.808 7.83205 158.363 8.23196 157.949 8.6578C157.798 8.80962 157.7 8.81332 157.549 8.6578C157.116 8.20975 156.667 7.77281 156.226 7.33216C156 7.10628 155.94 6.82486 155.925 6.57677H155.929Z" fill="#5867A5"/>
</g>
<defs>
<clipPath id="clip0_5_1227">
<rect width="187" height="34" fill="white"/>
</clipPath>
</defs>
</svg>
